<svg xmlns="http://www.w3.org/2000/svg" width="420" height="300" viewBox="0 0 420 300" role="img" aria-label="yelling fish popup">
  <defs>
    <linearGradient id="ocean" x1="0" y1="0" x2="1" y2="1">
      <stop offset="0%" stop-color="#1e2f8f"/>
      <stop offset="100%" stop-color="#6026a8"/>
    </linearGradient>
  </defs>
  <rect width="420" height="300" fill="url(#ocean)"/>
  <g transform="translate(40,40)">
    <ellipse cx="170" cy="110" rx="145" ry="80" fill="#f0a61e" stroke="#a75f03" stroke-width="8"/>
    <ellipse cx="152" cy="84" rx="18" ry="11" fill="#fff"/>
    <circle cx="156" cy="84" r="5" fill="#111"/>
    <path d="M82 108 C116 62 228 58 274 102 C266 154 216 194 158 198 C122 200 98 186 72 160 C68 140 70 122 82 108 Z" fill="#8d0b08"/>
    <path d="M88 120 C122 86 214 86 258 122 C240 134 214 144 180 150 C142 158 110 154 90 142 Z" fill="#fff"/>
    <path d="M94 148 C124 170 196 172 244 142 C236 166 208 190 170 196 C132 202 108 192 94 172 Z" fill="#d31616"/>
    <path d="M302 106 L340 86 L340 126 Z" fill="#f0a61e" stroke="#a75f03" stroke-width="6"/>
  </g>
</svg>
